<?xml version="1.0" standalone="no"?>
<!DOCTYPE svg PUBLIC "-//W3C//DTD SVG 20010904//EN" "http://www.w3.org/TR/2001/REC-SVG-20010904/DTD/svg10.dtd">
<svg version="1.0" xmlns="http://www.w3.org/2000/svg" width="1200px" height="600px" viewBox="0 0 1200.000000 600.000000" preserveAspectRatio="xMidYMid meet">
<rect x="0" y="0" width="1200" height="600" fill="#032f47" />
<g transform="translate(80,1000) scale(0.1,-0.1)" fill="none" stroke="none">
<path fill="#f06600" d="M1382 9560 l-1124 -5 -20 -25 c-10 -14 -46 -56 -79 -95 -32 -38 -82 -101 -109 -139 l-50 -69 0 -951 0 -951 45 -55 c25 -30 63 -80 84 -110 22 -30 56 -75 76 -100 19 -25 59 -79 89 -120 30 -41 88 -114 128 -161 41 -48 82 -102 91 -120 8 -19 35 -52 57 -74 23 -22 60 -64 81 -92 l40 -53 290 0 289 0 10 26 c14 37 12 161 -4 222 -15 54 -63 156 -109 230 -15 23 -27 46 -27 51 0 14 -61 70 -120 110 -75 51 -178 90 -345 130 -44 10 -91 23 -105 29 -14 6 -50 18 -80 26 -59 16 -169 78 -236 132 -49 39 -135 154 -154 204 -7 19 -19 49 -26 67 -29 64 -35 199 -32 664 l3 464 31 76 c17 41 47 100 67 131 20 30 37 59 37 65 0 11 72 83 83 83 5 0 35 18 68 41 117 79 62 74 834 74 770 0 714 5 833 -72 32 -20 152 -132 272 -253 208 -211 268 -262 339 -296 44 -20 188 -44 274 -44 80 0 154 -24 223 -71 27 -19 68 -41 92 -48 58 -19 85 -5 117 61 l25 52 0 430 c-1 490 0 481 -79 523 -44 23 -45 23 -400 21 -196 -2 -862 -5 -1479 -8z"/>
<path fill="#f06600" d="M7546 9562 c-3 -5 -18 -13 -33 -17 -35 -8 -122 -89 -147 -135 -10 -19 -40 -60 -66 -90 -26 -30 -61 -76 -79 -102 -17 -26 -56 -75 -86 -110 -30 -35 -62 -78 -71 -96 -9 -19 -30 -50 -48 -71 -18 -20 -42 -49 -54 -65 l-22 -29 0 -2165 c0 -2145 1 -2165 20 -2192 40 -57 69 -60 455 -58 319 3 352 5 377 21 14 10 30 26 35 35 4 9 9 717 11 1573 l2 1557 25 16 c13 8 46 24 74 35 77 29 344 205 409 270 126 126 145 201 140 553 -3 229 -4 245 -25 284 -29 54 -141 148 -196 163 -23 7 -79 30 -124 52 -72 35 -89 49 -142 115 -34 43 -82 121 -111 182 -28 59 -59 122 -68 140 -16 33 -82 93 -131 121 -31 17 -136 27 -145 13z"/>
<path fill="#f06600" d="M9506 9541 c-39 -22 -62 -47 -108 -117 -32 -49 -68 -109 -79 -134 -12 -25 -30 -63 -41 -86 -10 -23 -48 -73 -83 -111 -49 -54 -78 -76 -127 -97 -155 -68 -204 -96 -240 -139 -78 -94 -78 -93 -78 -367 0 -278 -12 -375 -58 -490 -16 -41 -35 -88 -41 -105 -15 -39 -173 -204 -231 -241 -25 -16 -66 -45 -91 -65 -26 -19 -62 -42 -80 -49 -28 -11 -78 -46 -133 -91 -8 -7 92 -216 119 -249 7 -8 31 -49 52 -90 22 -41 57 -104 77 -138 20 -35 36 -66 36 -68 0 -2 16 -27 35 -54 19 -27 35 -55 35 -61 0 -7 18 -40 40 -75 22 -35 40 -67 40 -71 1 -18 41 -54 56 -51 16 3 42 42 63 97 6 14 36 67 67 116 32 50 73 122 92 160 19 39 38 72 42 75 4 3 24 37 44 75 40 76 55 101 127 216 27 42 56 96 65 120 16 39 47 91 131 220 13 20 33 61 44 90 11 30 29 63 39 74 9 11 23 30 29 43 6 12 16 22 21 22 7 0 10 -610 10 -1686 0 -1674 0 -1687 20 -1719 39 -63 50 -65 430 -65 l342 0 28 28 c21 22 30 42 35 83 3 30 5 1017 3 2194 l-3 2140 -22 41 c-12 23 -44 65 -70 94 -26 29 -56 68 -65 88 -10 19 -44 63 -76 96 -33 34 -69 80 -81 103 -11 23 -27 46 -35 50 -8 4 -34 35 -59 68 -61 80 -103 119 -155 139 -62 24 -109 20 -166 -13z"/>
<path fill="#f06600" d="M3898 9544 c-57 -30 -57 -34 -64 -516 l-6 -443 24 -45 c42 -78 7 -74 713 -80 619 -6 631 -6 705 -29 103 -31 146 -58 238 -150 77 -79 79 -81 112 -186 29 -95 32 -114 27 -184 -4 -44 -19 -116 -35 -165 -27 -82 -34 -92 -119 -180 -79 -82 -98 -96 -159 -119 -38 -15 -89 -31 -114 -36 -28 -7 -282 -11 -655 -11 l-610 0 -39 -23 c-22 -12 -49 -35 -60 -50 l-21 -28 -3 -1374 c-2 -1085 0 -1381 10 -1411 8 -24 26 -47 47 -61 34 -23 36 -23 380 -23 334 0 348 1 386 21 22 12 45 29 52 38 10 13 13 204 11 936 -3 1016 -6 966 61 1007 36 23 39 23 301 18 146 -3 412 -5 591 -5 365 0 366 0 401 69 23 46 30 158 11 197 -6 13 -21 62 -34 109 -12 47 -34 121 -48 165 l-26 80 -5 835 -5 835 -64 83 c-34 46 -76 92 -92 101 -17 11 -60 21 -104 24 -83 7 -179 36 -240 72 -63 38 -147 126 -180 191 -107 206 -160 296 -191 323 l-35 31 -567 0 c-482 -1 -571 -3 -594 -16z"/>
<path fill="#f06600" d="M5425 9528 c12 -61 83 -196 123 -236 61 -61 76 -68 212 -101 134 -33 236 -78 286 -126 17 -16 48 -56 68 -88 21 -31 42 -59 47 -62 4 -3 21 -43 36 -88 l27 -82 7 -810 c4 -528 10 -826 17 -855 23 -97 94 -260 112 -260 5 0 17 15 26 33 22 42 71 112 114 163 19 23 52 72 73 109 l37 68 0 814 c0 809 0 814 -21 856 -32 64 -82 132 -170 231 -19 23 -47 61 -61 86 -14 25 -47 67 -73 95 -26 27 -63 74 -83 105 -50 79 -119 153 -156 167 -21 8 -127 12 -329 12 l-299 1 7 -32z"/>
<path fill="#f06600" d="M8075 9533 c4 -16 24 -71 46 -125 58 -138 118 -193 264 -239 59 -19 93 -23 215 -23 132 0 153 2 239 29 104 32 123 46 203 153 44 58 82 141 95 204 l6 28 -537 0 -536 0 5 -27z"/>
<path fill="#f06600" d="M481 8979 c-89 -44 -123 -83 -157 -175 l-29 -79 0 -460 c0 -523 1 -530 77 -624 74 -90 131 -117 448 -206 187 -52 284 -89 320 -121 19 -17 61 -49 92 -72 37 -27 73 -67 103 -111 25 -39 50 -73 56 -76 22 -14 136 -285 149 -356 6 -30 28 -99 49 -154 l40 -100 168 -6 c92 -3 175 -8 183 -11 8 -4 28 -9 43 -13 64 -14 183 -154 212 -250 27 -88 27 -335 1 -424 -35 -115 -147 -239 -256 -282 -28 -11 -192 -15 -865 -19 -810 -5 -831 -5 -857 -25 -57 -42 -59 -60 -56 -507 l3 -408 33 -32 32 -33 806 -3 806 -2 28 30 c27 29 27 31 33 197 7 195 18 247 78 361 37 71 57 94 129 155 46 40 92 80 102 89 9 9 35 26 57 37 22 12 66 42 98 69 32 26 75 58 96 70 52 30 205 160 219 185 33 62 38 123 38 474 0 219 -4 370 -11 400 -11 47 -9 51 50 191 34 79 61 146 61 149 0 3 7 19 15 36 25 55 55 141 55 158 0 9 -9 37 -20 61 -17 39 -29 50 -85 77 -116 58 -333 121 -700 206 -108 25 -361 90 -490 125 -44 13 -105 28 -135 35 -157 36 -302 98 -351 152 -15 15 -42 60 -60 98 -33 68 -34 74 -34 190 l1 120 46 95 c39 80 56 101 100 135 83 63 128 86 202 106 63 17 113 19 544 19 l474 0 -49 37 c-56 42 -130 111 -222 207 -178 186 -258 261 -309 288 l-54 28 -622 0 -623 0 -62 -31z"/>
<path fill="#f06600" d="M3117 6758 c-31 -68 -57 -128 -57 -135 0 -6 -11 -35 -25 -65 l-25 -53 0 -414 c0 -343 -3 -423 -16 -474 -18 -69 -69 -177 -84 -177 -6 0 -33 -24 -60 -52 -26 -29 -83 -78 -124 -108 -42 -30 -100 -74 -129 -98 -28 -24 -77 -57 -107 -75 -30 -17 -93 -65 -140 -106 -78 -68 -87 -80 -115 -150 -28 -72 -29 -84 -28 -209 1 -157 4 -162 101 -192 71 -22 211 -27 284 -10 24 5 86 19 138 29 107 22 230 74 282 120 20 17 39 31 43 31 18 0 102 81 158 154 87 113 131 203 169 347 l33 124 0 600 0 600 -29 112 c-41 162 -136 323 -191 323 -16 0 -31 -24 -78 -122z"/>
</g>
</svg>
